<svg width="2223" height="735" viewBox="0 0 2223 735" fill="none" xmlns="http://www.w3.org/2000/svg">
<rect width="2223" height="613" transform="translate(0 115)" fill="#FFC864"/>
<rect y="662" width="2223" height="73" fill="#551A30"/>
<circle cx="1100.04" cy="477.434" r="12.5585" fill="#503D16"/>
<path d="M1191.97 454.832C1187.62 466.386 1159.82 485.977 1105.57 477.94" stroke="#4100FA" stroke-width="23.1077"/>
<ellipse cx="1245.63" cy="411.225" rx="9.41929" ry="7.20299" transform="rotate(52.8834 1245.63 411.225)" fill="black"/>
<path fill-rule="evenodd" clip-rule="evenodd" d="M1251.98 389.53C1250.56 388.428 1249.97 386.479 1249.79 384.693C1249.64 383.185 1249.03 381.593 1247.95 380.171C1245.43 376.839 1241.32 375.702 1238.78 377.629C1235.49 380.117 1233.13 385.787 1230.6 389.041C1226.28 394.596 1228.84 403.821 1236.33 409.646C1240.83 413.145 1246.08 414.622 1250.49 414.039C1251.22 413.942 1251.95 414.252 1252.4 414.839C1255.53 418.987 1260.65 420.404 1263.82 418.004C1267 415.603 1267.02 410.294 1263.88 406.146C1263.24 405.296 1262.51 404.562 1261.74 403.95C1261.64 403.872 1261.64 403.719 1261.75 403.642C1264.29 401.715 1264.31 397.451 1261.79 394.12C1260.19 392.001 1257.94 390.769 1255.87 390.65C1254.51 390.572 1253.06 390.366 1251.98 389.53Z" fill="black"/>
<ellipse cx="1227.78" cy="401.045" rx="9.41929" ry="7.20299" transform="rotate(52.8834 1227.78 401.045)" fill="#551A30"/>
<path d="M1184.34 661.932C1175.1 661.932 1159.52 668.424 1159.52 674.644C1159.52 680.864 1166.05 677.982 1175.28 677.982C1184.52 677.982 1193.3 680.059 1193.3 673.839C1193.3 667.619 1193.57 661.932 1184.34 661.932Z" fill="black"/>
<path d="M1200.54 552.25C1200.54 542.922 1192.98 535.359 1183.65 535.359C1174.32 535.359 1166.76 542.922 1166.76 552.25V669.088H1200.54V552.25Z" fill="black"/>
<rect x="1193.05" y="446" width="73" height="114" rx="7.97562" fill="#C9CCFF"/>
<path d="M1234.67 552.805C1234.67 544.238 1227.72 537.293 1219.16 537.293C1210.59 537.293 1203.64 544.238 1203.64 552.805V668.281H1234.67V552.805Z" fill="black"/>
<path d="M1211.4 535.574C1222.34 535.574 1231.22 544.448 1231.22 555.395C1231.22 566.341 1222.34 575.215 1211.4 575.215L1185.2 575.215C1175.39 575.215 1167.45 567.268 1167.45 557.465L1167.45 535.574L1211.4 535.574Z" fill="black"/>
<path d="M1163.7 481.451C1163.7 462.229 1179.28 446.647 1198.5 446.647C1217.73 446.647 1233.31 462.229 1233.31 481.451V555.439H1163.7V481.451Z" fill="#4100FA" stroke="#4100FA" stroke-width="1.72353"/>
<circle cx="1198.85" cy="415.564" r="26.5957" fill="#503D16"/>
<path d="M1194.63 424.514C1194.63 425.678 1194.4 426.831 1193.96 427.906C1193.51 428.982 1192.86 429.959 1192.04 430.782C1191.21 431.606 1190.24 432.259 1189.16 432.704C1188.09 433.15 1186.93 433.379 1185.77 433.379C1184.6 433.379 1183.45 433.15 1182.38 432.704C1181.3 432.259 1180.32 431.606 1179.5 430.782C1178.68 429.959 1178.02 428.982 1177.58 427.906C1177.13 426.831 1176.9 425.678 1176.9 424.514L1185.77 424.514H1194.63Z" fill="white"/>
<path d="M1189.53 472.765L1189.96 446.792L1206.04 451.318L1189.53 472.765Z" fill="#503D16"/>
<path d="M1190.47 444.785C1187.96 444.785 1180.92 449.306 1180.92 460.86C1180.92 471.34 1177.57 476.265 1176.4 477.437" stroke="black" stroke-width="3.01405"/>
<path fill-rule="evenodd" clip-rule="evenodd" d="M1205.82 410.819C1204.87 411.036 1203.94 411.276 1203.03 411.547C1200.71 412.243 1198.16 412.627 1195.49 412.627C1190.38 412.627 1185.72 411.221 1182.23 408.918C1181.4 408.367 1180.51 407.851 1179.62 407.33C1177.44 406.06 1175.22 404.767 1173.64 402.907C1173.05 402.215 1172.65 401.403 1172.5 400.503C1172.25 399.112 1172.63 397.723 1173.47 396.514C1174.83 394.544 1176.71 392.884 1178.54 391.262C1179.04 390.811 1179.55 390.364 1180.04 389.914C1183.62 386.616 1189.21 384.496 1195.49 384.496C1197.2 384.496 1198.86 384.654 1200.44 384.95C1202.95 385.418 1205.61 385.573 1208.26 385.726C1210.28 385.842 1212.28 385.958 1214.2 386.211C1216.54 386.52 1219 387.406 1221.31 388.886C1225.1 391.322 1227.6 394.817 1228.38 398.225C1231.02 401.541 1233.01 406.086 1233.8 411.266C1235.54 422.719 1230.76 432.942 1223.14 434.101C1215.51 435.26 1207.92 426.915 1206.18 415.463C1205.94 413.885 1205.82 412.33 1205.82 410.819Z" fill="black"/>
<rect x="1194.14" y="470.906" width="17.4424" height="4.3606" transform="rotate(15.4064 1194.14 470.906)" fill="white"/>
<circle cx="1173.89" cy="481.958" r="6.0281" fill="black"/>
<circle cx="1173.89" cy="481.956" r="4.01873" fill="#C4C4C4"/>
<path d="M1207.55 445.285C1210.06 445.787 1215.48 447.797 1213.07 459.853M1213.07 459.853C1209.39 459.016 1201.82 459.754 1201.02 469.399C1200.21 479.044 1200.01 483.465 1200.01 483.465H1202.52M1213.07 459.853C1216.25 460.356 1221.91 463.471 1219.1 471.911C1216.29 480.35 1214.91 484.469 1214.58 485.474L1212.07 484.469" stroke="black" stroke-width="3.01405" stroke-linecap="round" stroke-linejoin="round"/>
<rect x="1056.63" y="497.371" width="356.283" height="169.869" fill="#4100FA"/>
<rect x="1032.23" y="495.016" width="404.817" height="104.789" fill="white"/>
<path d="M1374.07 388.152C1380.19 388.152 1385.14 393.106 1385.14 399.217L1385.14 454.3C1385.14 460.411 1380.19 465.365 1374.07 465.365L1296.9 465.365C1290.8 465.365 1285.87 460.427 1285.87 454.335L1285.87 399.183C1285.87 393.091 1290.8 388.152 1296.9 388.152L1374.07 388.152Z" fill="black"/>
<rect x="1291.05" y="487" width="90" height="8" fill="black"/>
<rect x="1332.2" y="432.301" width="7.7213" height="55.1521" fill="#252525"/>
<path d="M1395.04 454.799C1395.56 456.079 1402.65 476.532 1401.38 477.051C1400.1 477.57 1390.93 457.959 1390.41 456.68C1389.89 455.4 1390.51 453.942 1391.79 453.423C1393.06 452.904 1394.52 453.52 1395.04 454.799Z" fill="#22461D"/>
<path d="M1405.46 448.911C1405.34 450.287 1402 477.197 1400.63 477.081C1399.25 476.965 1400.36 449.867 1400.47 448.491C1400.59 447.115 1401.8 446.094 1403.17 446.21C1404.55 446.326 1405.57 447.535 1405.46 448.911Z" fill="#22461D"/>
<path d="M1410.99 459.617C1410.52 460.916 1402.9 477.483 1401.6 477.015C1400.3 476.547 1405.82 459.221 1406.29 457.922C1406.75 456.623 1408.19 455.95 1409.48 456.418C1410.78 456.886 1411.46 458.318 1410.99 459.617Z" fill="#22461D"/>
<path d="M1397 473.966C1397.03 473.432 1397.47 473.012 1398 473.012H1404.09C1404.62 473.012 1405.07 473.432 1405.09 473.966L1406 493.966C1406.02 494.536 1405.57 495.012 1405 495.012H1397.09C1396.52 495.012 1396.07 494.536 1396.09 493.966L1397 473.966Z" fill="#551A30"/>
<path d="M1385.05 473.512C1385.05 476.273 1382.81 478.512 1380.05 478.512C1377.28 478.512 1375.05 476.273 1375.05 473.512C1375.05 470.75 1380.05 460.012 1380.05 460.012C1380.05 460.012 1385.05 470.75 1385.05 473.512Z" fill="#22461D"/>
<path d="M1385.79 483.719C1383.92 485.752 1380.76 485.886 1378.73 484.017C1376.69 482.149 1376.56 478.986 1378.43 476.953C1380.3 474.919 1391.24 470.395 1391.24 470.395C1391.24 470.395 1387.66 481.685 1385.79 483.719Z" fill="#22461D"/>
<path d="M1381.02 477.01C1382.62 479.26 1382.1 482.382 1379.85 483.984C1377.6 485.585 1374.48 485.06 1372.88 482.81C1371.27 480.561 1369.12 468.913 1369.12 468.913C1369.12 468.913 1379.42 474.761 1381.02 477.01Z" fill="#22461D"/>
<path d="M1371.91 482.869C1371.99 481.823 1372.86 481.012 1373.91 481.012H1386.18C1387.23 481.012 1388.1 481.823 1388.18 482.869L1388.89 492.869C1388.98 494.027 1388.06 495.012 1386.9 495.012H1373.19C1372.03 495.012 1371.12 494.027 1371.2 492.869L1371.91 482.869Z" fill="#AF2896"/>
<path d="M1377.07 474.748C1379.83 474.899 1381.94 477.256 1381.79 480.013C1381.64 482.771 1379.28 484.884 1376.53 484.733C1373.77 484.582 1363.32 479.004 1363.32 479.004C1363.32 479.004 1374.31 474.597 1377.07 474.748Z" fill="#22461D"/>
<path d="M1382.76 483.972C1380.01 484.174 1377.61 482.105 1377.41 479.351C1377.21 476.597 1379.28 474.201 1382.03 473.999C1384.79 473.797 1395.86 477.998 1395.86 477.998C1395.86 477.998 1385.52 483.77 1382.76 483.972Z" fill="#22461D"/>
<rect x="1205.03" y="540.23" width="60.0607" height="14.649" fill="#C9CCFF"/>
<rect x="1242.21" y="517.121" width="60.0607" height="14.649" transform="rotate(90 1242.21 517.121)" fill="#C9CCFF"/>
<rect x="1190.11" y="428.848" width="17.4368" height="26.5957" rx="8.71838" transform="rotate(0.787123 1190.11 428.848)" fill="#503D16"/>
<rect x="444.046" y="211" width="210" height="453" fill="#252525"/>
<rect x="461.046" y="227" width="176" height="219" fill="#BCF6EB"/>
<rect opacity="0.3" x="461.046" y="465" width="176" height="181" fill="black" fill-opacity="0.87"/>
<path opacity="0.5" d="M461.41 305.655L636.498 436.16L636.498 446L569.045 446L461.41 362.845L461.41 305.655Z" fill="white"/>
<path opacity="0.5" d="M460.63 254.051L636.501 387.284L636.501 406.205L460.63 272.971L460.63 254.051Z" fill="white"/>
<path fill-rule="evenodd" clip-rule="evenodd" d="M1540.79 594.546C1540.79 591.127 1538.01 588.355 1534.59 588.355H1458.21C1454.79 588.355 1452.02 591.127 1452.02 594.546C1452.02 597.965 1454.79 600.737 1458.21 600.737H1458.74C1462.45 600.737 1465.47 603.748 1465.47 607.462V632.738C1465.47 649.823 1479.32 663.673 1496.4 663.673C1513.49 663.673 1527.34 649.823 1527.34 632.738V607.462C1527.34 603.748 1530.35 600.737 1534.06 600.737H1534.59C1538.01 600.737 1540.79 597.965 1540.79 594.546Z" fill="#AF2896"/>
<path d="M1492.93 585.995C1492.93 585.995 1473.51 593.324 1453.42 587.941C1433.33 582.557 1420.18 566.501 1420.18 566.501C1420.18 566.501 1439.6 559.173 1459.69 564.556C1479.78 569.939 1492.93 585.995 1492.93 585.995Z" fill="#22461D"/>
<path d="M1492.46 586.222C1492.46 586.222 1485.13 566.802 1490.51 546.712C1495.9 526.622 1511.95 513.469 1511.95 513.469C1511.95 513.469 1519.28 532.888 1513.9 552.978C1508.51 573.068 1492.46 586.222 1492.46 586.222Z" fill="#22461D"/>
<path d="M1491.97 585.915C1491.97 585.915 1505.12 569.859 1525.21 564.475C1545.3 559.092 1564.72 566.421 1564.72 566.421C1564.72 566.421 1551.57 582.477 1531.48 587.86C1511.39 593.244 1491.97 585.915 1491.97 585.915Z" fill="#22461D"/>
<path d="M1440.9 638.063C1440.9 638.063 1444.27 617.581 1458.97 602.874C1473.68 588.167 1494.16 584.804 1494.16 584.804C1494.16 584.804 1490.8 605.286 1476.09 619.993C1461.39 634.7 1440.9 638.063 1440.9 638.063Z" fill="#22461D"/>
<circle cx="12.5585" cy="12.5585" r="12.5585" transform="matrix(-0.853394 -0.521267 -0.521267 0.853394 984.987 549.742)" fill="#FCCDC3"/>
<path d="M901.056 486.703C898.749 498.833 912.257 530.041 962.746 551.462" stroke="#C9CCFF" stroke-width="23.1077"/>
<ellipse cx="914.959" cy="424.433" rx="25.6194" ry="26.1218" transform="rotate(-9.94638 914.959 424.433)" fill="#FCCDC3"/>
<rect x="901.186" y="437.355" width="17.0411" height="21.0427" transform="rotate(4.6604 901.186 437.355)" fill="#FCCDC3"/>
<path d="M965.179 648.004C974.522 648.004 990.282 653.691 990.282 659.14C990.282 664.589 983.681 662.064 974.338 662.064C964.995 662.064 956.112 663.884 956.112 658.435C956.112 652.986 955.836 648.004 965.179 648.004Z" fill="#503D16"/>
<path d="M964.157 553.338C973.763 553.512 981.41 561.44 981.237 571.046C981.064 580.652 973.136 588.299 963.53 588.125L892.873 586.85C886.249 586.731 880.976 581.264 881.095 574.64L881.507 551.847L964.157 553.338Z" fill="black"/>
<path d="M950.168 577.152C950.168 568.121 957.489 560.801 966.519 560.801C975.549 560.801 982.87 568.121 982.87 577.152V651.97H950.168V577.152Z" fill="black"/>
<path d="M1000.46 641.2C1008.6 636.606 1025.12 633.81 1027.8 638.555C1030.48 643.3 1023.49 644.347 1015.35 648.94C1007.21 653.534 1000.37 659.486 997.695 654.741C995.016 649.996 992.326 645.793 1000.46 641.2Z" fill="#503D16"/>
<path d="M952.553 586.879C948.113 579.015 950.888 569.041 958.752 564.602C966.615 560.162 976.589 562.937 981.029 570.801L1017.81 635.952L989.337 652.03L952.553 586.879Z" fill="black"/>
<path d="M882.635 478.313C882.836 465.291 893.556 454.897 906.578 455.098C919.622 455.3 930.025 466.054 929.792 479.098L928.476 552.826L881.485 552.808L882.635 478.313Z" fill="#C9CCFF"/>
<rect x="887.247" y="588.723" width="17.0796" height="67.3138" fill="black"/>
<rect x="844.046" y="654.531" width="102.088" height="7.97562" fill="black"/>
<rect x="844.046" y="586.414" width="106.873" height="28.7122" rx="7.97562" fill="#4100FA"/>
<rect x="844.046" y="493.277" width="29.1358" height="113.529" rx="7.97562" fill="#4100FA"/>
<circle cx="970.782" cy="508.473" r="13.2409" transform="rotate(-75.1119 970.782 508.473)" fill="#FCCDC3"/>
<path d="M920.586 527.445C914.919 528.269 909.656 524.343 908.831 518.676C908.007 513.008 911.933 507.746 917.601 506.921L964.147 500.15L967.133 520.674L920.586 527.445Z" fill="#FCCDC3"/>
<path d="M923.194 518.416C924.083 526.906 917.92 534.509 909.429 535.398C900.939 536.286 893.336 530.123 892.447 521.633L889.055 489.21L919.802 485.993L923.194 518.416Z" fill="white"/>
<path d="M909.321 536.4C901.038 537.605 893.348 531.868 892.143 523.585C890.938 515.303 896.675 507.612 904.958 506.407L948.733 500.039L953.096 530.033L909.321 536.4Z" fill="white"/>
<path fill-rule="evenodd" clip-rule="evenodd" d="M912.033 426.514C909.971 427.096 908.33 428.727 907.299 430.607C906.698 431.703 905.913 432.776 904.966 433.781C903.363 435.481 902.763 438.004 902.736 440.341C902.679 445.167 898.802 449.034 894.074 448.979C889.347 448.924 885.561 444.967 885.617 440.141C885.635 438.665 885.132 437.172 884.377 435.904C883.779 434.9 883.47 433.782 883.425 432.608C883.357 430.882 882.729 429.148 881.846 427.664C880.131 424.786 880.761 421.024 883.12 417.912C883.75 417.08 883.72 415.889 883.186 414.992C880.716 410.846 883.11 404.866 888.532 401.636C890.819 400.275 892.626 397.891 894.219 395.759C896.17 393.15 899.818 391.366 904.019 391.309C907.267 391.265 910.731 390.335 913.742 389.116C915.288 388.489 917.043 388.124 918.907 388.099C925.218 388.013 930.388 391.856 930.453 396.682C930.457 396.954 930.653 397.19 930.922 397.233C936.038 398.037 939.9 401.472 939.957 405.639C940.022 410.465 934.959 414.447 928.648 414.532C927.765 414.544 926.945 415.032 926.521 415.807C923.923 420.55 918.699 424.63 912.033 426.514Z" fill="#F67B37"/>
<rect x="1005.1" y="233.504" width="135.154" height="162.445" fill="white"/>
<rect x="1019.01" y="247.418" width="32.9058" height="32.9058" fill="#E6E6E6"/>
<rect x="1081.83" y="289.301" width="44.8716" height="32.9058" fill="#E6E6E6"/>
<rect x="1019.01" y="289.301" width="56.8373" height="32.9058" fill="#E6E6E6"/>
<rect x="1057.9" y="247.418" width="71.7945" height="5.98288" fill="#E6E6E6"/>
<rect x="1057.9" y="256.395" width="71.7945" height="5.98288" fill="#E6E6E6"/>
<rect x="1057.9" y="265.367" width="44.8716" height="5.98288" fill="#E6E6E6"/>
<rect x="1057.9" y="274.344" width="44.8716" height="5.98288" fill="#E6E6E6"/>
<rect x="1030.98" y="328.191" width="95.726" height="5.98288" fill="#E6E6E6"/>
<rect x="1030.98" y="337.164" width="95.726" height="5.98288" fill="#E6E6E6"/>
<rect x="1030.98" y="346.133" width="59.8288" height="5.98288" fill="#E6E6E6"/>
<rect x="1030.98" y="355.109" width="59.8288" height="5.98288" fill="#E6E6E6"/>
<rect x="1019.01" y="355.109" width="5.98288" height="5.98288" fill="#E6E6E6"/>
<rect x="1019.01" y="346.133" width="5.98288" height="5.98288" fill="#E6E6E6"/>
<rect x="1019.01" y="337.164" width="5.98288" height="5.98288" fill="#E6E6E6"/>
<rect x="1019.01" y="328.191" width="5.98288" height="5.98288" fill="#E6E6E6"/>
<rect x="1030.98" y="364.086" width="95.726" height="5.98288" fill="#E6E6E6"/>
<rect x="1030.98" y="373.059" width="95.726" height="5.98288" fill="#E6E6E6"/>
<rect x="1019.01" y="373.059" width="5.98288" height="5.98288" fill="#E6E6E6"/>
<rect x="1019.01" y="364.086" width="5.98288" height="5.98288" fill="#E6E6E6"/>
<rect x="1005.1" y="233.504" width="135.154" height="162.445" stroke="#E6E6E6" stroke-width="3.89868"/>
<rect x="1167.54" y="249.098" width="136.454" height="102.665" fill="white"/>
<rect width="32.9058" height="32.9058" transform="matrix(1 0 0 -1 1181.46 337.801)" fill="#E6E6E6"/>
<rect width="44.8716" height="32.9058" transform="matrix(1 0 0 -1 1244.28 295.918)" fill="#E6E6E6"/>
<rect width="56.8373" height="32.9058" transform="matrix(1 0 0 -1 1181.46 295.918)" fill="#E6E6E6"/>
<rect width="71.7945" height="5.98288" transform="matrix(1 0 0 -1 1220.35 337.801)" fill="#E6E6E6"/>
<rect width="71.7945" height="5.98288" transform="matrix(1 0 0 -1 1220.35 328.824)" fill="#E6E6E6"/>
<rect width="44.8716" height="5.98288" transform="matrix(1 0 0 -1 1220.35 319.848)" fill="#E6E6E6"/>
<rect width="44.8716" height="5.98288" transform="matrix(1 0 0 -1 1220.35 310.875)" fill="#E6E6E6"/>
<rect x="1167.54" y="249.098" width="136.454" height="102.665" stroke="#E6E6E6" stroke-width="3.89868"/>
</svg>
